<svg xmlns="http://www.w3.org/2000/svg" xmlns:xlink="http://www.w3.org/1999/xlink" preserveAspectRatio="xMidYMid" width="195.719" height="42" viewBox="0 0 195.719 42">
  <defs>
    <style>
      .cls-1 {
        fill: #1ed6cb;
        fill-rule: evenodd;
      }
    </style>
  </defs>
  <path d="M194.076,29.149 C192.976,31.709 191.476,33.939 189.576,35.839 C187.676,37.739 185.446,39.239 182.886,40.339 C180.326,41.438 177.606,41.989 174.726,41.989 C171.846,41.989 169.126,41.438 166.566,40.339 C164.006,39.239 161.776,37.739 159.876,35.839 C157.976,33.939 156.476,31.709 155.376,29.149 C154.276,26.589 153.726,23.869 153.726,20.989 C153.726,18.109 154.276,15.389 155.376,12.829 C156.476,10.269 157.976,8.039 159.876,6.139 C161.776,4.239 164.006,2.739 166.566,1.639 C169.126,0.539 171.846,-0.011 174.726,-0.011 C177.606,-0.011 180.326,0.539 182.886,1.639 C185.446,2.739 187.676,4.239 189.576,6.139 C191.476,8.039 192.976,10.269 194.076,12.829 C195.176,15.389 195.726,18.109 195.726,20.989 C195.726,23.869 195.176,26.589 194.076,29.149 ZM188.886,15.019 C188.086,13.159 186.986,11.529 185.586,10.129 C184.186,8.729 182.556,7.629 180.696,6.829 C178.836,6.029 176.846,5.629 174.726,5.629 C172.606,5.629 170.616,6.029 168.756,6.829 C166.896,7.629 165.266,8.729 163.866,10.129 C162.466,11.529 161.366,13.159 160.566,15.019 C159.766,16.879 159.366,18.869 159.366,20.989 C159.366,23.109 159.766,25.099 160.566,26.959 C161.366,28.819 162.466,30.449 163.866,31.849 C165.266,33.249 166.896,34.349 168.756,35.149 C170.616,35.949 172.606,36.349 174.726,36.349 C176.846,36.349 178.836,35.949 180.696,35.149 C182.556,34.349 184.186,33.249 185.586,31.849 C186.986,30.449 188.086,28.819 188.886,26.959 C189.686,25.099 190.086,23.109 190.086,20.989 C190.086,18.869 189.686,16.879 188.886,15.019 ZM184.476,30.739 C183.216,31.999 181.756,32.989 180.096,33.709 C178.436,34.429 176.646,34.789 174.726,34.789 C172.806,34.789 171.016,34.429 169.356,33.709 C167.696,32.989 166.236,31.999 164.976,30.739 C163.716,29.479 162.726,28.019 162.006,26.359 C161.286,24.699 160.926,22.909 160.926,20.989 C160.926,19.069 161.286,17.279 162.006,15.619 C162.726,13.959 163.716,12.499 164.976,11.239 C166.236,9.979 167.696,8.989 169.356,8.269 C171.016,7.549 172.806,7.189 174.726,7.189 C176.646,7.189 178.436,7.549 180.096,8.269 C181.756,8.989 183.216,9.979 184.476,11.239 C185.736,12.499 186.726,13.959 187.446,15.619 C188.166,17.279 188.526,19.069 188.526,20.989 C188.526,22.909 188.166,24.699 187.446,26.359 C186.726,28.019 185.736,29.479 184.476,30.739 ZM182.466,17.719 C182.026,16.699 181.426,15.809 180.666,15.049 C179.906,14.289 179.016,13.689 177.996,13.249 C176.976,12.809 175.886,12.589 174.726,12.589 C173.566,12.589 172.476,12.809 171.456,13.249 C170.436,13.689 169.546,14.289 168.786,15.049 C168.026,15.809 167.426,16.699 166.986,17.719 C166.546,18.739 166.326,19.829 166.326,20.989 C166.326,22.149 166.546,23.239 166.986,24.259 C167.426,25.279 168.026,26.169 168.786,26.929 C169.546,27.689 170.436,28.289 171.456,28.729 C172.476,29.169 173.566,29.389 174.726,29.389 C175.886,29.389 176.976,29.169 177.996,28.729 C179.016,28.289 179.906,27.689 180.666,26.929 C181.426,26.169 182.026,25.279 182.466,24.259 C182.906,23.239 183.126,22.149 183.126,20.989 C183.126,19.829 182.906,18.739 182.466,17.719 ZM145.117,35.869 C143.096,37.549 140.617,38.819 137.677,39.679 C134.737,40.539 131.386,40.969 127.627,40.969 L116.527,40.969 L116.527,0.949 L127.627,0.949 C131.386,0.949 134.737,1.369 137.677,2.209 C140.617,3.049 143.096,4.309 145.117,5.989 C147.136,7.669 148.676,9.759 149.737,12.259 C150.796,14.759 151.327,17.649 151.327,20.929 C151.327,24.209 150.796,27.099 149.737,29.599 C148.676,32.099 147.136,34.189 145.117,35.869 ZM140.857,9.709 C137.876,7.069 133.466,5.749 127.627,5.749 L122.527,5.749 L122.527,36.169 L127.627,36.169 C133.466,36.169 137.876,34.839 140.857,32.179 C143.836,29.519 145.327,25.769 145.327,20.929 C145.327,16.089 143.836,12.349 140.857,9.709 ZM127.627,34.729 L124.087,34.729 L124.087,7.189 L127.627,7.189 C132.706,7.189 136.657,8.339 139.477,10.639 C142.297,12.939 143.707,16.369 143.707,20.929 C143.707,25.489 142.297,28.929 139.477,31.249 C136.657,33.569 132.706,34.729 127.627,34.729 ZM136.267,14.449 C134.626,13.049 132.307,12.349 129.307,12.349 L129.307,29.569 C132.307,29.569 134.626,28.859 136.267,27.439 C137.906,26.019 138.727,23.849 138.727,20.929 C138.727,18.009 137.906,15.849 136.267,14.449 ZM107.077,35.839 C105.177,37.739 102.947,39.239 100.387,40.339 C97.827,41.438 95.107,41.989 92.227,41.989 C89.347,41.989 86.627,41.438 84.067,40.339 C81.507,39.239 79.277,37.739 77.377,35.839 C75.477,33.939 73.977,31.709 72.877,29.149 C71.777,26.589 71.227,23.869 71.227,20.989 C71.227,18.109 71.777,15.389 72.877,12.829 C73.977,10.269 75.477,8.039 77.377,6.139 C79.277,4.239 81.507,2.739 84.067,1.639 C86.627,0.539 89.347,-0.011 92.227,-0.011 C95.107,-0.011 97.827,0.539 100.387,1.639 C102.947,2.739 105.177,4.239 107.077,6.139 C108.977,8.039 110.477,10.269 111.577,12.829 C112.677,15.389 113.227,18.109 113.227,20.989 C113.227,23.869 112.677,26.589 111.577,29.149 C110.477,31.709 108.977,33.939 107.077,35.839 ZM106.387,15.019 C105.587,13.159 104.487,11.529 103.087,10.129 C101.687,8.729 100.057,7.629 98.197,6.829 C96.337,6.029 94.347,5.629 92.227,5.629 C90.107,5.629 88.117,6.029 86.257,6.829 C84.397,7.629 82.767,8.729 81.367,10.129 C79.967,11.529 78.867,13.159 78.067,15.019 C77.267,16.879 76.867,18.869 76.867,20.989 C76.867,23.109 77.267,25.099 78.067,26.959 C78.867,28.819 79.967,30.449 81.367,31.849 C82.767,33.249 84.397,34.349 86.257,35.149 C88.117,35.949 90.107,36.349 92.227,36.349 C94.347,36.349 96.337,35.949 98.197,35.149 C100.057,34.349 101.687,33.249 103.087,31.849 C104.487,30.449 105.587,28.819 106.387,26.959 C107.187,25.099 107.587,23.109 107.587,20.989 C107.587,18.869 107.187,16.879 106.387,15.019 ZM101.977,30.739 C100.717,31.999 99.257,32.989 97.597,33.709 C95.937,34.429 94.147,34.789 92.227,34.789 C90.307,34.789 88.517,34.429 86.857,33.709 C85.197,32.989 83.737,31.999 82.477,30.739 C81.217,29.479 80.227,28.019 79.507,26.359 C78.787,24.699 78.427,22.909 78.427,20.989 C78.427,19.069 78.787,17.279 79.507,15.619 C80.227,13.959 81.217,12.499 82.477,11.239 C83.737,9.979 85.197,8.989 86.857,8.269 C88.517,7.549 90.307,7.189 92.227,7.189 C94.147,7.189 95.937,7.549 97.597,8.269 C99.257,8.989 100.717,9.979 101.977,11.239 C103.237,12.499 104.227,13.959 104.947,15.619 C105.667,17.279 106.027,19.069 106.027,20.989 C106.027,22.909 105.667,24.699 104.947,26.359 C104.227,28.019 103.237,29.479 101.977,30.739 ZM99.967,17.719 C99.527,16.699 98.927,15.809 98.167,15.049 C97.407,14.289 96.517,13.689 95.497,13.249 C94.477,12.809 93.387,12.589 92.227,12.589 C91.067,12.589 89.977,12.809 88.957,13.249 C87.937,13.689 87.047,14.289 86.287,15.049 C85.527,15.809 84.927,16.699 84.487,17.719 C84.047,18.739 83.827,19.829 83.827,20.989 C83.827,22.149 84.047,23.239 84.487,24.259 C84.927,25.279 85.527,26.169 86.287,26.929 C87.047,27.689 87.937,28.289 88.957,28.729 C89.977,29.169 91.067,29.389 92.227,29.389 C93.387,29.389 94.477,29.169 95.497,28.729 C96.517,28.289 97.407,27.689 98.167,26.929 C98.927,26.169 99.527,25.279 99.967,24.259 C100.407,23.239 100.627,22.149 100.627,20.989 C100.627,19.829 100.407,18.739 99.967,17.719 ZM63.007,40.969 L50.227,40.969 L50.227,23.749 L37.807,0.949 L52.027,0.949 L56.647,9.409 L61.207,0.949 L75.427,0.949 L63.007,23.749 L63.007,40.969 ZM66.187,5.749 L64.327,5.749 L56.647,19.969 L48.907,5.749 L47.107,5.749 L55.807,21.829 L55.807,36.169 L57.427,36.169 L57.427,21.829 L66.187,5.749 ZM42.008,20.989 C42.008,23.869 41.457,26.589 40.358,29.149 C39.257,31.709 37.757,33.939 35.858,35.839 C33.957,37.739 31.727,39.239 29.168,40.339 C26.607,41.438 23.888,41.989 21.008,41.989 C18.128,41.989 15.407,41.438 12.848,40.339 C10.287,39.239 8.057,37.739 6.158,35.839 C4.257,33.939 2.757,31.709 1.658,29.149 C0.557,26.589 0.008,23.869 0.008,20.989 C0.008,18.109 0.557,15.389 1.658,12.829 C2.757,10.269 4.257,8.039 6.158,6.139 C8.057,4.239 10.287,2.739 12.848,1.639 C15.407,0.539 18.128,-0.011 21.008,-0.011 C23.888,-0.011 26.607,0.539 29.168,1.639 C31.727,2.739 33.957,4.239 35.858,6.139 C37.757,8.039 39.257,10.269 40.358,12.829 C41.457,15.389 42.008,18.109 42.008,20.989 ZM35.168,15.019 C34.367,13.159 33.267,11.529 31.868,10.129 C30.467,8.729 28.838,7.629 26.978,6.829 C25.118,6.029 23.127,5.629 21.008,5.629 C18.887,5.629 16.898,6.029 15.038,6.829 C13.178,7.629 11.547,8.729 10.148,10.129 C8.747,11.529 7.647,13.159 6.848,15.019 C6.047,16.879 5.648,18.869 5.648,20.989 C5.648,23.109 6.047,25.099 6.848,26.959 C7.647,28.819 8.747,30.449 10.148,31.849 C11.547,33.249 13.178,34.349 15.038,35.149 C16.898,35.949 18.887,36.349 21.008,36.349 C23.127,36.349 25.118,35.949 26.978,35.149 C28.838,34.349 30.467,33.249 31.868,31.849 C33.267,30.449 34.367,28.819 35.168,26.959 C35.967,25.099 36.368,23.109 36.368,20.989 C36.368,18.869 35.967,16.879 35.168,15.019 ZM30.758,30.739 C29.498,31.999 28.037,32.989 26.378,33.709 C24.717,34.429 22.928,34.789 21.008,34.789 C19.088,34.789 17.297,34.429 15.638,33.709 C13.977,32.989 12.518,31.999 11.258,30.739 C9.998,29.479 9.008,28.019 8.288,26.359 C7.568,24.699 7.208,22.909 7.208,20.989 C7.208,19.069 7.568,17.279 8.288,15.619 C9.008,13.959 9.998,12.499 11.258,11.239 C12.518,9.979 13.977,8.989 15.638,8.269 C17.297,7.549 19.088,7.189 21.008,7.189 C22.928,7.189 24.717,7.549 26.378,8.269 C28.037,8.989 29.498,9.979 30.758,11.239 C32.018,12.499 33.008,13.959 33.728,15.619 C34.448,17.279 34.808,19.069 34.808,20.989 C34.808,22.909 34.448,24.699 33.728,26.359 C33.008,28.019 32.018,29.479 30.758,30.739 ZM28.748,17.719 C28.307,16.699 27.707,15.809 26.948,15.049 C26.187,14.289 25.298,13.689 24.278,13.249 C23.258,12.809 22.167,12.589 21.008,12.589 C19.847,12.589 18.758,12.809 17.738,13.249 C16.718,13.689 15.827,14.289 15.068,15.049 C14.307,15.809 13.707,16.699 13.268,17.719 C12.827,18.739 12.608,19.829 12.608,20.989 C12.608,22.149 12.827,23.239 13.268,24.259 C13.707,25.279 14.307,26.169 15.068,26.929 C15.827,27.689 16.718,28.289 17.738,28.729 C18.758,29.169 19.847,29.389 21.008,29.389 C22.167,29.389 23.258,29.169 24.278,28.729 C25.298,28.289 26.187,27.689 26.948,26.929 C27.707,26.169 28.307,25.279 28.748,24.259 C29.187,23.239 29.408,22.149 29.408,20.989 C29.408,19.829 29.187,18.739 28.748,17.719 Z" class="cls-1"/>
</svg>
